<svg width="152" height="72" viewBox="0 0 152 72" fill="none" xmlns="http://www.w3.org/2000/svg">
<path d="M148.352 70.9997C150.018 70.9997 151.368 69.6493 151.368 67.9835C151.368 66.3177 150.018 64.9672 148.352 64.9672C146.686 64.9672 145.336 66.3177 145.336 67.9835C145.336 69.6493 146.686 70.9997 148.352 70.9997Z" stroke="#DC911B" stroke-width="0.5" stroke-miterlimit="10"/>
<path d="M132.316 70.9997C133.981 70.9997 135.332 69.6493 135.332 67.9835C135.332 66.3177 133.981 64.9672 132.316 64.9672C130.65 64.9672 129.299 66.3177 129.299 67.9835C129.299 69.6493 130.65 70.9997 132.316 70.9997Z" stroke="#DC911B" stroke-width="0.5" stroke-miterlimit="10"/>
<path d="M116.278 70.9997C117.944 70.9997 119.294 69.6493 119.294 67.9835C119.294 66.3177 117.944 64.9672 116.278 64.9672C114.612 64.9672 113.262 66.3177 113.262 67.9835C113.262 69.6493 114.612 70.9997 116.278 70.9997Z" stroke="#DC911B" stroke-width="0.5" stroke-miterlimit="10"/>
<path d="M100.241 70.9997C101.907 70.9997 103.258 69.6493 103.258 67.9835C103.258 66.3177 101.907 64.9672 100.241 64.9672C98.5756 64.9672 97.2251 66.3177 97.2251 67.9835C97.2251 69.6493 98.5756 70.9997 100.241 70.9997Z" stroke="#DC911B" stroke-width="0.5" stroke-miterlimit="10"/>
<path d="M84.2038 70.9997C85.8696 70.9997 87.22 69.6493 87.22 67.9835C87.22 66.3177 85.8696 64.9672 84.2038 64.9672C82.5379 64.9672 81.1875 66.3177 81.1875 67.9835C81.1875 69.6493 82.5379 70.9997 84.2038 70.9997Z" stroke="#DC911B" stroke-width="0.5" stroke-miterlimit="10"/>
<path d="M68.1666 70.9997C69.8325 70.9997 71.1829 69.6493 71.1829 67.9835C71.1829 66.3177 69.8325 64.9672 68.1666 64.9672C66.5008 64.9672 65.1504 66.3177 65.1504 67.9835C65.1504 69.6493 66.5008 70.9997 68.1666 70.9997Z" stroke="#DC911B" stroke-width="0.5" stroke-miterlimit="10"/>
<path d="M52.1281 70.9997C53.7939 70.9997 55.1443 69.6493 55.1443 67.9835C55.1443 66.3177 53.7939 64.9672 52.1281 64.9672C50.4622 64.9672 49.1118 66.3177 49.1118 67.9835C49.1118 69.6493 50.4622 70.9997 52.1281 70.9997Z" stroke="#DC911B" stroke-width="0.5" stroke-miterlimit="10"/>
<path d="M36.0905 70.9997C37.7563 70.9997 39.1067 69.6493 39.1067 67.9835C39.1067 66.3177 37.7563 64.9672 36.0905 64.9672C34.4246 64.9672 33.0742 66.3177 33.0742 67.9835C33.0742 69.6493 34.4246 70.9997 36.0905 70.9997Z" stroke="#DC911B" stroke-width="0.5" stroke-miterlimit="10"/>
<path d="M20.0538 70.9997C21.7197 70.9997 23.0701 69.6493 23.0701 67.9835C23.0701 66.3177 21.7197 64.9672 20.0538 64.9672C18.388 64.9672 17.0376 66.3177 17.0376 67.9835C17.0376 69.6493 18.388 70.9997 20.0538 70.9997Z" stroke="#DC911B" stroke-width="0.5" stroke-miterlimit="10"/>
<path d="M4.01625 71.0003C5.68209 71.0003 7.0325 69.6499 7.0325 67.984C7.0325 66.3182 5.68209 64.9678 4.01625 64.9678C2.35042 64.9678 1 66.3182 1 67.984C1 69.6499 2.35042 71.0003 4.01625 71.0003Z" stroke="#DC911B" stroke-width="0.5" stroke-miterlimit="10"/>
<path d="M148.352 55.0082C150.018 55.0082 151.368 53.6577 151.368 51.9919C151.368 50.3261 150.018 48.9756 148.352 48.9756C146.686 48.9756 145.336 50.3261 145.336 51.9919C145.336 53.6577 146.686 55.0082 148.352 55.0082Z" stroke="#DC911B" stroke-width="0.5" stroke-miterlimit="10"/>
<path d="M132.316 55.0082C133.981 55.0082 135.332 53.6577 135.332 51.9919C135.332 50.3261 133.981 48.9756 132.316 48.9756C130.65 48.9756 129.299 50.3261 129.299 51.9919C129.299 53.6577 130.65 55.0082 132.316 55.0082Z" stroke="#DC911B" stroke-width="0.5" stroke-miterlimit="10"/>
<path d="M116.278 55.0082C117.944 55.0082 119.294 53.6577 119.294 51.9919C119.294 50.3261 117.944 48.9756 116.278 48.9756C114.612 48.9756 113.262 50.3261 113.262 51.9919C113.262 53.6577 114.612 55.0082 116.278 55.0082Z" stroke="#DC911B" stroke-width="0.5" stroke-miterlimit="10"/>
<path d="M100.241 55.0082C101.907 55.0082 103.258 53.6577 103.258 51.9919C103.258 50.3261 101.907 48.9756 100.241 48.9756C98.5756 48.9756 97.2251 50.3261 97.2251 51.9919C97.2251 53.6577 98.5756 55.0082 100.241 55.0082Z" stroke="#DC911B" stroke-width="0.5" stroke-miterlimit="10"/>
<path d="M84.2038 55.0082C85.8696 55.0082 87.22 53.6577 87.22 51.9919C87.22 50.3261 85.8696 48.9756 84.2038 48.9756C82.5379 48.9756 81.1875 50.3261 81.1875 51.9919C81.1875 53.6577 82.5379 55.0082 84.2038 55.0082Z" stroke="#DC911B" stroke-width="0.5" stroke-miterlimit="10"/>
<path d="M68.1666 55.0082C69.8325 55.0082 71.1829 53.6577 71.1829 51.9919C71.1829 50.3261 69.8325 48.9756 68.1666 48.9756C66.5008 48.9756 65.1504 50.3261 65.1504 51.9919C65.1504 53.6577 66.5008 55.0082 68.1666 55.0082Z" stroke="#DC911B" stroke-width="0.5" stroke-miterlimit="10"/>
<path d="M52.1281 55.0082C53.7939 55.0082 55.1443 53.6577 55.1443 51.9919C55.1443 50.3261 53.7939 48.9756 52.1281 48.9756C50.4622 48.9756 49.1118 50.3261 49.1118 51.9919C49.1118 53.6577 50.4622 55.0082 52.1281 55.0082Z" stroke="#DC911B" stroke-width="0.5" stroke-miterlimit="10"/>
<path d="M36.0905 55.0082C37.7563 55.0082 39.1067 53.6577 39.1067 51.9919C39.1067 50.3261 37.7563 48.9756 36.0905 48.9756C34.4246 48.9756 33.0742 50.3261 33.0742 51.9919C33.0742 53.6577 34.4246 55.0082 36.0905 55.0082Z" stroke="#DC911B" stroke-width="0.5" stroke-miterlimit="10"/>
<path d="M20.0538 55.0082C21.7197 55.0082 23.0701 53.6577 23.0701 51.9919C23.0701 50.3261 21.7197 48.9756 20.0538 48.9756C18.388 48.9756 17.0376 50.3261 17.0376 51.9919C17.0376 53.6577 18.388 55.0082 20.0538 55.0082Z" stroke="#DC911B" stroke-width="0.5" stroke-miterlimit="10"/>
<path d="M4.01625 55.0081C5.68209 55.0081 7.0325 53.6577 7.0325 51.9918C7.0325 50.326 5.68209 48.9756 4.01625 48.9756C2.35042 48.9756 1 50.326 1 51.9918C1 53.6577 2.35042 55.0081 4.01625 55.0081Z" stroke="#DC911B" stroke-width="0.5" stroke-miterlimit="10"/>
<path d="M148.352 39.0164C150.018 39.0164 151.368 37.666 151.368 36.0001C151.368 34.3343 150.018 32.9839 148.352 32.9839C146.686 32.9839 145.336 34.3343 145.336 36.0001C145.336 37.666 146.686 39.0164 148.352 39.0164Z" stroke="#DC911B" stroke-width="0.5" stroke-miterlimit="10"/>
<path d="M132.316 39.0164C133.981 39.0164 135.332 37.666 135.332 36.0001C135.332 34.3343 133.981 32.9839 132.316 32.9839C130.65 32.9839 129.299 34.3343 129.299 36.0001C129.299 37.666 130.65 39.0164 132.316 39.0164Z" stroke="#DC911B" stroke-width="0.5" stroke-miterlimit="10"/>
<path d="M116.278 39.0164C117.944 39.0164 119.294 37.666 119.294 36.0001C119.294 34.3343 117.944 32.9839 116.278 32.9839C114.612 32.9839 113.262 34.3343 113.262 36.0001C113.262 37.666 114.612 39.0164 116.278 39.0164Z" stroke="#DC911B" stroke-width="0.5" stroke-miterlimit="10"/>
<path d="M100.241 39.0164C101.907 39.0164 103.258 37.666 103.258 36.0001C103.258 34.3343 101.907 32.9839 100.241 32.9839C98.5756 32.9839 97.2251 34.3343 97.2251 36.0001C97.2251 37.666 98.5756 39.0164 100.241 39.0164Z" stroke="#DC911B" stroke-width="0.5" stroke-miterlimit="10"/>
<path d="M84.2038 39.0164C85.8696 39.0164 87.22 37.666 87.22 36.0001C87.22 34.3343 85.8696 32.9839 84.2038 32.9839C82.5379 32.9839 81.1875 34.3343 81.1875 36.0001C81.1875 37.666 82.5379 39.0164 84.2038 39.0164Z" stroke="#DC911B" stroke-width="0.5" stroke-miterlimit="10"/>
<path d="M68.1666 39.0164C69.8325 39.0164 71.1829 37.666 71.1829 36.0001C71.1829 34.3343 69.8325 32.9839 68.1666 32.9839C66.5008 32.9839 65.1504 34.3343 65.1504 36.0001C65.1504 37.666 66.5008 39.0164 68.1666 39.0164Z" stroke="#DC911B" stroke-width="0.5" stroke-miterlimit="10"/>
<path d="M52.1281 39.0164C53.7939 39.0164 55.1443 37.666 55.1443 36.0001C55.1443 34.3343 53.7939 32.9839 52.1281 32.9839C50.4622 32.9839 49.1118 34.3343 49.1118 36.0001C49.1118 37.666 50.4622 39.0164 52.1281 39.0164Z" stroke="#DC911B" stroke-width="0.5" stroke-miterlimit="10"/>
<path d="M36.0905 39.0164C37.7563 39.0164 39.1067 37.666 39.1067 36.0001C39.1067 34.3343 37.7563 32.9839 36.0905 32.9839C34.4246 32.9839 33.0742 34.3343 33.0742 36.0001C33.0742 37.666 34.4246 39.0164 36.0905 39.0164Z" stroke="#DC911B" stroke-width="0.5" stroke-miterlimit="10"/>
<path d="M20.0538 39.0164C21.7197 39.0164 23.0701 37.666 23.0701 36.0001C23.0701 34.3343 21.7197 32.9839 20.0538 32.9839C18.388 32.9839 17.0376 34.3343 17.0376 36.0001C17.0376 37.666 18.388 39.0164 20.0538 39.0164Z" stroke="#DC911B" stroke-width="0.5" stroke-miterlimit="10"/>
<path d="M4.01625 39.0163C5.68209 39.0163 7.0325 37.6659 7.0325 36C7.0325 34.3342 5.68209 32.9838 4.01625 32.9838C2.35042 32.9838 1 34.3342 1 36C1 37.6659 2.35042 39.0163 4.01625 39.0163Z" stroke="#DC911B" stroke-width="0.5" stroke-miterlimit="10"/>
<path d="M148.352 23.0245C150.018 23.0245 151.368 21.674 151.368 20.0082C151.368 18.3424 150.018 16.9919 148.352 16.9919C146.686 16.9919 145.336 18.3424 145.336 20.0082C145.336 21.674 146.686 23.0245 148.352 23.0245Z" stroke="#DC911B" stroke-width="0.5" stroke-miterlimit="10"/>
<path d="M132.316 23.0245C133.981 23.0245 135.332 21.674 135.332 20.0082C135.332 18.3424 133.981 16.9919 132.316 16.9919C130.65 16.9919 129.299 18.3424 129.299 20.0082C129.299 21.674 130.65 23.0245 132.316 23.0245Z" stroke="#DC911B" stroke-width="0.5" stroke-miterlimit="10"/>
<path d="M116.278 23.0245C117.944 23.0245 119.294 21.674 119.294 20.0082C119.294 18.3424 117.944 16.9919 116.278 16.9919C114.612 16.9919 113.262 18.3424 113.262 20.0082C113.262 21.674 114.612 23.0245 116.278 23.0245Z" stroke="#DC911B" stroke-width="0.5" stroke-miterlimit="10"/>
<path d="M100.241 23.0245C101.907 23.0245 103.258 21.674 103.258 20.0082C103.258 18.3424 101.907 16.9919 100.241 16.9919C98.5756 16.9919 97.2251 18.3424 97.2251 20.0082C97.2251 21.674 98.5756 23.0245 100.241 23.0245Z" stroke="#DC911B" stroke-width="0.5" stroke-miterlimit="10"/>
<path d="M84.2038 23.0245C85.8696 23.0245 87.22 21.674 87.22 20.0082C87.22 18.3424 85.8696 16.9919 84.2038 16.9919C82.5379 16.9919 81.1875 18.3424 81.1875 20.0082C81.1875 21.674 82.5379 23.0245 84.2038 23.0245Z" stroke="#DC911B" stroke-width="0.5" stroke-miterlimit="10"/>
<path d="M68.1666 23.0245C69.8325 23.0245 71.1829 21.674 71.1829 20.0082C71.1829 18.3424 69.8325 16.9919 68.1666 16.9919C66.5008 16.9919 65.1504 18.3424 65.1504 20.0082C65.1504 21.674 66.5008 23.0245 68.1666 23.0245Z" stroke="#DC911B" stroke-width="0.5" stroke-miterlimit="10"/>
<path d="M52.1281 23.0245C53.7939 23.0245 55.1443 21.674 55.1443 20.0082C55.1443 18.3424 53.7939 16.9919 52.1281 16.9919C50.4622 16.9919 49.1118 18.3424 49.1118 20.0082C49.1118 21.674 50.4622 23.0245 52.1281 23.0245Z" stroke="#DC911B" stroke-width="0.5" stroke-miterlimit="10"/>
<path d="M36.0905 23.0245C37.7563 23.0245 39.1067 21.674 39.1067 20.0082C39.1067 18.3424 37.7563 16.9919 36.0905 16.9919C34.4246 16.9919 33.0742 18.3424 33.0742 20.0082C33.0742 21.674 34.4246 23.0245 36.0905 23.0245Z" stroke="#DC911B" stroke-width="0.5" stroke-miterlimit="10"/>
<path d="M20.0538 23.0245C21.7197 23.0245 23.0701 21.674 23.0701 20.0082C23.0701 18.3424 21.7197 16.9919 20.0538 16.9919C18.388 16.9919 17.0376 18.3424 17.0376 20.0082C17.0376 21.674 18.388 23.0245 20.0538 23.0245Z" stroke="#DC911B" stroke-width="0.5" stroke-miterlimit="10"/>
<path d="M4.01625 23.0245C5.68209 23.0245 7.0325 21.674 7.0325 20.0082C7.0325 18.3424 5.68209 16.9919 4.01625 16.9919C2.35042 16.9919 1 18.3424 1 20.0082C1 21.674 2.35042 23.0245 4.01625 23.0245Z" stroke="#DC911B" stroke-width="0.5" stroke-miterlimit="10"/>
<path d="M148.352 7.03252C150.018 7.03252 151.368 5.68209 151.368 4.01626C151.368 2.35043 150.018 1 148.352 1C146.686 1 145.336 2.35043 145.336 4.01626C145.336 5.68209 146.686 7.03252 148.352 7.03252Z" stroke="#DC911B" stroke-width="0.5" stroke-miterlimit="10"/>
<path d="M132.316 7.03252C133.981 7.03252 135.332 5.68209 135.332 4.01626C135.332 2.35043 133.981 1 132.316 1C130.65 1 129.299 2.35043 129.299 4.01626C129.299 5.68209 130.65 7.03252 132.316 7.03252Z" stroke="#DC911B" stroke-width="0.5" stroke-miterlimit="10"/>
<path d="M116.278 7.03252C117.944 7.03252 119.294 5.68209 119.294 4.01626C119.294 2.35043 117.944 1 116.278 1C114.612 1 113.262 2.35043 113.262 4.01626C113.262 5.68209 114.612 7.03252 116.278 7.03252Z" stroke="#DC911B" stroke-width="0.5" stroke-miterlimit="10"/>
<path d="M100.241 7.03252C101.907 7.03252 103.258 5.68209 103.258 4.01626C103.258 2.35043 101.907 1 100.241 1C98.5756 1 97.2251 2.35043 97.2251 4.01626C97.2251 5.68209 98.5756 7.03252 100.241 7.03252Z" stroke="#DC911B" stroke-width="0.5" stroke-miterlimit="10"/>
<path d="M84.2038 7.03252C85.8696 7.03252 87.22 5.68209 87.22 4.01626C87.22 2.35043 85.8696 1 84.2038 1C82.5379 1 81.1875 2.35043 81.1875 4.01626C81.1875 5.68209 82.5379 7.03252 84.2038 7.03252Z" stroke="#DC911B" stroke-width="0.5" stroke-miterlimit="10"/>
<path d="M68.1666 7.03252C69.8325 7.03252 71.1829 5.68209 71.1829 4.01626C71.1829 2.35043 69.8325 1 68.1666 1C66.5008 1 65.1504 2.35043 65.1504 4.01626C65.1504 5.68209 66.5008 7.03252 68.1666 7.03252Z" stroke="#DC911B" stroke-width="0.5" stroke-miterlimit="10"/>
<path d="M52.1281 7.03252C53.7939 7.03252 55.1443 5.68209 55.1443 4.01626C55.1443 2.35043 53.7939 1 52.1281 1C50.4622 1 49.1118 2.35043 49.1118 4.01626C49.1118 5.68209 50.4622 7.03252 52.1281 7.03252Z" stroke="#DC911B" stroke-width="0.5" stroke-miterlimit="10"/>
<path d="M36.0905 7.03252C37.7563 7.03252 39.1067 5.68209 39.1067 4.01626C39.1067 2.35043 37.7563 1 36.0905 1C34.4246 1 33.0742 2.35043 33.0742 4.01626C33.0742 5.68209 34.4246 7.03252 36.0905 7.03252Z" stroke="#DC911B" stroke-width="0.5" stroke-miterlimit="10"/>
<path d="M20.0538 7.03252C21.7197 7.03252 23.0701 5.68209 23.0701 4.01626C23.0701 2.35043 21.7197 1 20.0538 1C18.388 1 17.0376 2.35043 17.0376 4.01626C17.0376 5.68209 18.388 7.03252 20.0538 7.03252Z" stroke="#DC911B" stroke-width="0.5" stroke-miterlimit="10"/>
<path d="M4.01625 7.03252C5.68209 7.03252 7.0325 5.68209 7.0325 4.01626C7.0325 2.35043 5.68209 1 4.01625 1C2.35042 1 1 2.35043 1 4.01626C1 5.68209 2.35042 7.03252 4.01625 7.03252Z" stroke="#DC911B" stroke-width="0.5" stroke-miterlimit="10"/>
</svg>
