<svg width="73" height="126" viewBox="0 0 73 126" fill="none" xmlns="http://www.w3.org/2000/svg">
<path d="M72.0005 8.59187C72.0005 6.90224 70.6308 5.53253 68.9412 5.53253C67.2516 5.53253 65.8818 6.90224 65.8818 8.59187C65.8818 10.2815 67.2516 11.6512 68.9412 11.6512C70.6308 11.6512 72.0005 10.2815 72.0005 8.59187Z" stroke="#DC911B" stroke-width="0.5" stroke-miterlimit="10"/>
<path d="M72.0005 24.8581C72.0005 23.1685 70.6308 21.7988 68.9412 21.7988C67.2516 21.7988 65.8818 23.1685 65.8818 24.8581C65.8818 26.5477 67.2516 27.9175 68.9412 27.9175C70.6308 27.9175 72.0005 26.5477 72.0005 24.8581Z" stroke="#DC911B" stroke-width="0.5" stroke-miterlimit="10"/>
<path d="M72.0005 41.1245C72.0005 39.4349 70.6308 38.0651 68.9412 38.0651C67.2516 38.0651 65.8818 39.4349 65.8818 41.1245C65.8818 42.8141 67.2516 44.1838 68.9412 44.1838C70.6308 44.1838 72.0005 42.8141 72.0005 41.1245Z" stroke="#DC911B" stroke-width="0.5" stroke-miterlimit="10"/>
<path d="M72.0005 57.3907C72.0005 55.7011 70.6308 54.3314 68.9412 54.3314C67.2516 54.3314 65.8818 55.7011 65.8818 57.3907C65.8818 59.0804 67.2516 60.4501 68.9412 60.4501C70.6308 60.4501 72.0005 59.0804 72.0005 57.3907Z" stroke="#DC911B" stroke-width="0.5" stroke-miterlimit="10"/>
<path d="M72.0005 73.6583C72.0005 71.9687 70.6308 70.599 68.9412 70.599C67.2516 70.599 65.8818 71.9687 65.8818 73.6583C65.8818 75.3479 67.2516 76.7177 68.9412 76.7177C70.6308 76.7177 72.0005 75.3479 72.0005 73.6583Z" stroke="#DC911B" stroke-width="0.5" stroke-miterlimit="10"/>
<path d="M72.0005 89.9245C72.0005 88.2349 70.6308 86.8652 68.9412 86.8652C67.2516 86.8652 65.8818 88.2349 65.8818 89.9245C65.8818 91.6142 67.2516 92.9839 68.9412 92.9839C70.6308 92.9839 72.0005 91.6142 72.0005 89.9245Z" stroke="#DC911B" stroke-width="0.5" stroke-miterlimit="10"/>
<path d="M72.0005 106.191C72.0005 104.501 70.6308 103.132 68.9412 103.132C67.2516 103.132 65.8818 104.501 65.8818 106.191C65.8818 107.881 67.2516 109.25 68.9412 109.25C70.6308 109.25 72.0005 107.881 72.0005 106.191Z" stroke="#DC911B" stroke-width="0.5" stroke-miterlimit="10"/>
<path d="M72.0005 122.457C72.0005 120.768 70.6308 119.398 68.9412 119.398C67.2516 119.398 65.8818 120.768 65.8818 122.457C65.8818 124.147 67.2516 125.517 68.9412 125.517C70.6308 125.517 72.0005 124.147 72.0005 122.457Z" stroke="#DC911B" stroke-width="0.5" stroke-miterlimit="10"/>
<path d="M55.7793 8.59187C55.7793 6.90224 54.4096 5.53253 52.72 5.53253C51.0304 5.53253 49.6606 6.90224 49.6606 8.59187C49.6606 10.2815 51.0304 11.6512 52.72 11.6512C54.4096 11.6512 55.7793 10.2815 55.7793 8.59187Z" stroke="#DC911B" stroke-width="0.5" stroke-miterlimit="10"/>
<path d="M55.7793 24.8581C55.7793 23.1685 54.4096 21.7988 52.72 21.7988C51.0304 21.7988 49.6606 23.1685 49.6606 24.8581C49.6606 26.5477 51.0304 27.9175 52.72 27.9175C54.4096 27.9175 55.7793 26.5477 55.7793 24.8581Z" stroke="#DC911B" stroke-width="0.5" stroke-miterlimit="10"/>
<path d="M55.7793 41.1245C55.7793 39.4349 54.4096 38.0651 52.72 38.0651C51.0304 38.0651 49.6606 39.4349 49.6606 41.1245C49.6606 42.8141 51.0304 44.1838 52.72 44.1838C54.4096 44.1838 55.7793 42.8141 55.7793 41.1245Z" stroke="#DC911B" stroke-width="0.5" stroke-miterlimit="10"/>
<path d="M55.7793 57.3907C55.7793 55.7011 54.4096 54.3314 52.72 54.3314C51.0304 54.3314 49.6606 55.7011 49.6606 57.3907C49.6606 59.0804 51.0304 60.4501 52.72 60.4501C54.4096 60.4501 55.7793 59.0804 55.7793 57.3907Z" stroke="#DC911B" stroke-width="0.5" stroke-miterlimit="10"/>
<path d="M55.7793 73.6583C55.7793 71.9687 54.4096 70.599 52.72 70.599C51.0304 70.599 49.6606 71.9687 49.6606 73.6583C49.6606 75.3479 51.0304 76.7177 52.72 76.7177C54.4096 76.7177 55.7793 75.3479 55.7793 73.6583Z" stroke="#DC911B" stroke-width="0.5" stroke-miterlimit="10"/>
<path d="M55.7793 89.9245C55.7793 88.2349 54.4096 86.8652 52.72 86.8652C51.0304 86.8652 49.6606 88.2349 49.6606 89.9245C49.6606 91.6142 51.0304 92.9839 52.72 92.9839C54.4096 92.9839 55.7793 91.6142 55.7793 89.9245Z" stroke="#DC911B" stroke-width="0.5" stroke-miterlimit="10"/>
<path d="M55.7793 106.191C55.7793 104.501 54.4096 103.132 52.72 103.132C51.0304 103.132 49.6606 104.501 49.6606 106.191C49.6606 107.881 51.0304 109.25 52.72 109.25C54.4096 109.25 55.7793 107.881 55.7793 106.191Z" stroke="#DC911B" stroke-width="0.5" stroke-miterlimit="10"/>
<path d="M55.7798 122.457C55.7798 120.768 54.4101 119.398 52.7205 119.398C51.0309 119.398 49.6611 120.768 49.6611 122.457C49.6611 124.147 51.0309 125.517 52.7205 125.517C54.4101 125.517 55.7798 124.147 55.7798 122.457Z" stroke="#DC911B" stroke-width="0.5" stroke-miterlimit="10"/>
<path d="M39.5591 8.59187C39.5591 6.90224 38.1894 5.53253 36.4998 5.53253C34.8101 5.53253 33.4404 6.90224 33.4404 8.59187C33.4404 10.2815 34.8101 11.6512 36.4998 11.6512C38.1894 11.6512 39.5591 10.2815 39.5591 8.59187Z" stroke="#DC911B" stroke-width="0.5" stroke-miterlimit="10"/>
<path d="M39.5591 24.8581C39.5591 23.1685 38.1894 21.7988 36.4998 21.7988C34.8101 21.7988 33.4404 23.1685 33.4404 24.8581C33.4404 26.5477 34.8101 27.9175 36.4998 27.9175C38.1894 27.9175 39.5591 26.5477 39.5591 24.8581Z" stroke="#DC911B" stroke-width="0.5" stroke-miterlimit="10"/>
<path d="M39.5591 41.1245C39.5591 39.4349 38.1894 38.0651 36.4998 38.0651C34.8101 38.0651 33.4404 39.4349 33.4404 41.1245C33.4404 42.8141 34.8101 44.1838 36.4998 44.1838C38.1894 44.1838 39.5591 42.8141 39.5591 41.1245Z" stroke="#DC911B" stroke-width="0.5" stroke-miterlimit="10"/>
<path d="M39.5591 57.3907C39.5591 55.7011 38.1894 54.3314 36.4998 54.3314C34.8101 54.3314 33.4404 55.7011 33.4404 57.3907C33.4404 59.0804 34.8101 60.4501 36.4998 60.4501C38.1894 60.4501 39.5591 59.0804 39.5591 57.3907Z" stroke="#DC911B" stroke-width="0.5" stroke-miterlimit="10"/>
<path d="M39.5591 73.6583C39.5591 71.9687 38.1894 70.599 36.4998 70.599C34.8101 70.599 33.4404 71.9687 33.4404 73.6583C33.4404 75.3479 34.8101 76.7177 36.4998 76.7177C38.1894 76.7177 39.5591 75.3479 39.5591 73.6583Z" stroke="#DC911B" stroke-width="0.5" stroke-miterlimit="10"/>
<path d="M39.5591 89.9245C39.5591 88.2349 38.1894 86.8652 36.4998 86.8652C34.8101 86.8652 33.4404 88.2349 33.4404 89.9245C33.4404 91.6142 34.8101 92.9839 36.4998 92.9839C38.1894 92.9839 39.5591 91.6142 39.5591 89.9245Z" stroke="#DC911B" stroke-width="0.5" stroke-miterlimit="10"/>
<path d="M39.5591 106.191C39.5591 104.501 38.1894 103.132 36.4998 103.132C34.8101 103.132 33.4404 104.501 33.4404 106.191C33.4404 107.881 34.8101 109.25 36.4998 109.25C38.1894 109.25 39.5591 107.881 39.5591 106.191Z" stroke="#DC911B" stroke-width="0.5" stroke-miterlimit="10"/>
<path d="M39.5591 122.457C39.5591 120.768 38.1894 119.398 36.4998 119.398C34.8101 119.398 33.4404 120.768 33.4404 122.457C33.4404 124.147 34.8101 125.517 36.4998 125.517C38.1894 125.517 39.5591 124.147 39.5591 122.457Z" stroke="#DC911B" stroke-width="0.5" stroke-miterlimit="10"/>
<path d="M23.3389 8.59187C23.3389 6.90224 21.9692 5.53253 20.2796 5.53253C18.5899 5.53253 17.2202 6.90224 17.2202 8.59187C17.2202 10.2815 18.5899 11.6512 20.2796 11.6512C21.9692 11.6512 23.3389 10.2815 23.3389 8.59187Z" stroke="#DC911B" stroke-width="0.5" stroke-miterlimit="10"/>
<path d="M23.3389 24.8581C23.3389 23.1685 21.9692 21.7988 20.2796 21.7988C18.5899 21.7988 17.2202 23.1685 17.2202 24.8581C17.2202 26.5477 18.5899 27.9175 20.2796 27.9175C21.9692 27.9175 23.3389 26.5477 23.3389 24.8581Z" stroke="#DC911B" stroke-width="0.5" stroke-miterlimit="10"/>
<path d="M23.3389 41.1245C23.3389 39.4349 21.9692 38.0651 20.2796 38.0651C18.5899 38.0651 17.2202 39.4349 17.2202 41.1245C17.2202 42.8141 18.5899 44.1838 20.2796 44.1838C21.9692 44.1838 23.3389 42.8141 23.3389 41.1245Z" stroke="#DC911B" stroke-width="0.5" stroke-miterlimit="10"/>
<path d="M23.3389 57.3907C23.3389 55.7011 21.9692 54.3314 20.2796 54.3314C18.5899 54.3314 17.2202 55.7011 17.2202 57.3907C17.2202 59.0804 18.5899 60.4501 20.2796 60.4501C21.9692 60.4501 23.3389 59.0804 23.3389 57.3907Z" stroke="#DC911B" stroke-width="0.5" stroke-miterlimit="10"/>
<path d="M23.3389 73.6583C23.3389 71.9687 21.9692 70.599 20.2796 70.599C18.5899 70.599 17.2202 71.9687 17.2202 73.6583C17.2202 75.3479 18.5899 76.7177 20.2796 76.7177C21.9692 76.7177 23.3389 75.3479 23.3389 73.6583Z" stroke="#DC911B" stroke-width="0.5" stroke-miterlimit="10"/>
<path d="M23.3389 89.9245C23.3389 88.2349 21.9692 86.8652 20.2796 86.8652C18.5899 86.8652 17.2202 88.2349 17.2202 89.9245C17.2202 91.6142 18.5899 92.9839 20.2796 92.9839C21.9692 92.9839 23.3389 91.6142 23.3389 89.9245Z" stroke="#DC911B" stroke-width="0.5" stroke-miterlimit="10"/>
<path d="M23.3389 106.191C23.3389 104.501 21.9692 103.132 20.2796 103.132C18.5899 103.132 17.2202 104.501 17.2202 106.191C17.2202 107.881 18.5899 109.25 20.2796 109.25C21.9692 109.25 23.3389 107.881 23.3389 106.191Z" stroke="#DC911B" stroke-width="0.5" stroke-miterlimit="10"/>
<path d="M23.3389 122.457C23.3389 120.768 21.9692 119.398 20.2796 119.398C18.5899 119.398 17.2202 120.768 17.2202 122.457C17.2202 124.147 18.5899 125.517 20.2796 125.517C21.9692 125.517 23.3389 124.147 23.3389 122.457Z" stroke="#DC911B" stroke-width="0.5" stroke-miterlimit="10"/>
<path d="M7.1187 8.59187C7.1187 6.90224 5.74898 5.53253 4.05935 5.53253C2.36972 5.53253 1 6.90224 1 8.59187C1 10.2815 2.36972 11.6512 4.05935 11.6512C5.74898 11.6512 7.1187 10.2815 7.1187 8.59187Z" stroke="#DC911B" stroke-width="0.5" stroke-miterlimit="10"/>
<path d="M7.1187 24.8581C7.1187 23.1685 5.74898 21.7988 4.05935 21.7988C2.36972 21.7988 1 23.1685 1 24.8581C1 26.5477 2.36972 27.9175 4.05935 27.9175C5.74898 27.9175 7.1187 26.5477 7.1187 24.8581Z" stroke="#DC911B" stroke-width="0.5" stroke-miterlimit="10"/>
<path d="M7.1187 41.1245C7.1187 39.4349 5.74898 38.0651 4.05935 38.0651C2.36972 38.0651 1 39.4349 1 41.1245C1 42.8141 2.36972 44.1838 4.05935 44.1838C5.74898 44.1838 7.1187 42.8141 7.1187 41.1245Z" stroke="#DC911B" stroke-width="0.5" stroke-miterlimit="10"/>
<path d="M7.1187 57.3907C7.1187 55.7011 5.74898 54.3314 4.05935 54.3314C2.36972 54.3314 1 55.7011 1 57.3907C1 59.0804 2.36972 60.4501 4.05935 60.4501C5.74898 60.4501 7.1187 59.0804 7.1187 57.3907Z" stroke="#DC911B" stroke-width="0.5" stroke-miterlimit="10"/>
<path d="M7.1187 73.6583C7.1187 71.9687 5.74898 70.599 4.05935 70.599C2.36972 70.599 1 71.9687 1 73.6583C1 75.3479 2.36972 76.7177 4.05935 76.7177C5.74898 76.7177 7.1187 75.3479 7.1187 73.6583Z" stroke="#DC911B" stroke-width="0.5" stroke-miterlimit="10"/>
<path d="M7.1187 89.9245C7.1187 88.2349 5.74898 86.8652 4.05935 86.8652C2.36972 86.8652 1 88.2349 1 89.9245C1 91.6142 2.36972 92.9839 4.05935 92.9839C5.74898 92.9839 7.1187 91.6142 7.1187 89.9245Z" stroke="#DC911B" stroke-width="0.5" stroke-miterlimit="10"/>
<path d="M7.1187 106.191C7.1187 104.501 5.74898 103.132 4.05935 103.132C2.36972 103.132 1 104.501 1 106.191C1 107.881 2.36972 109.25 4.05935 109.25C5.74898 109.25 7.1187 107.881 7.1187 106.191Z" stroke="#DC911B" stroke-width="0.5" stroke-miterlimit="10"/>
<path d="M7.1187 122.457C7.1187 120.768 5.74898 119.398 4.05935 119.398C2.36972 119.398 1 120.768 1 122.457C1 124.147 2.36972 125.517 4.05935 125.517C5.74898 125.517 7.1187 124.147 7.1187 122.457Z" stroke="#DC911B" stroke-width="0.5" stroke-miterlimit="10"/>
</svg>
