<svg width="595" height="749" viewBox="0 0 595 749" fill="none" xmlns="http://www.w3.org/2000/svg">
<path d="M570.305 701C570.106 702.135 570 703.299 570 704.487C570 715.817 579.477 725 591.169 725C592.477 725 593.757 724.884 595 724.665V701H570.305Z" fill="#686868"/>
<path d="M570.305 725C570.106 726.135 570 727.299 570 728.487C570 739.817 579.477 749 591.169 749C592.477 749 593.757 748.884 595 748.665V725H570.305Z" fill="#686868"/>
<path d="M545.305 701C545.106 702.135 545 703.299 545 704.487C545 715.817 554.477 725 566.169 725C567.477 725 568.757 724.884 570 724.665V701H545.305Z" fill="#686868"/>
<path d="M-1 53.2809C1.78933 53.7495 4.65206 54 7.57188 54C35.4244 54 58 31.6346 58 4.0415C58 0.954944 57.7145 -2.06697 57.1763 -5L-1 -5L-1 53.2809Z" fill="#FFB800" fill-opacity="0.33"/>
<path d="M1 51.4028C3.31656 51.792 5.69408 52 8.11902 52C31.2508 52 50 33.4254 50 10.509C50 7.94563 49.7629 5.43591 49.3159 3L1 3L1 51.4028Z" fill="#E2AB1B"/>
</svg>
