<svg width="595" height="749" viewBox="0 0 595 749" fill="none" xmlns="http://www.w3.org/2000/svg">
<path d="M570.305 701C570.106 702.135 570 703.299 570 704.487C570 715.817 579.477 725 591.169 725C592.477 725 593.757 724.884 595 724.665V701H570.305Z" fill="#686868"/>
<path d="M570.305 725C570.106 726.135 570 727.299 570 728.487C570 739.817 579.477 749 591.169 749C592.477 749 593.757 748.884 595 748.665V725H570.305Z" fill="#686868"/>
<path d="M545.305 701C545.106 702.135 545 703.299 545 704.487C545 715.817 554.477 725 566.169 725C567.477 725 568.757 724.884 570 724.665V701H545.305Z" fill="#686868"/>
<path d="M-1 68.0981C2.49848 68.6858 6.08902 69 9.75118 69C44.6848 69 73 40.9485 73 6.34018C73 2.46891 72.642 -1.32128 71.9668 -5L-1 -5L-1 68.0981Z" fill="#FFB800" fill-opacity="0.33"/>
<path d="M1 66.2443C3.93116 66.7368 6.93945 67 10.0077 67C39.2765 67 63 43.4974 63 14.5012C63 11.2577 62.7 8.08217 62.1344 5L1 5L1 66.2443Z" fill="#E2AB1B"/>
</svg>
