<svg width="1600" height="2014" viewBox="0 0 1600 2014" fill="none" xmlns="http://www.w3.org/2000/svg">
<path d="M1533.59 1884.87C1533.06 1887.93 1532.77 1891.06 1532.77 1894.25C1532.77 1924.71 1558.26 1949.41 1589.7 1949.41C1593.21 1949.41 1596.66 1949.09 1600 1948.51V1884.87H1533.59Z" fill="#686868"/>
<path d="M1533.59 1949.41C1533.06 1952.46 1532.77 1955.59 1532.77 1958.78C1532.77 1989.25 1558.26 2013.94 1589.7 2013.94C1593.21 2013.94 1596.66 2013.63 1600 2013.04V1949.41H1533.59Z" fill="#686868"/>
<path d="M1466.37 1884.87C1465.83 1887.93 1465.55 1891.06 1465.55 1894.25C1465.55 1924.71 1491.03 1949.41 1522.47 1949.41C1525.99 1949.41 1529.43 1949.09 1532.77 1948.51V1884.87H1466.37Z" fill="#686868"/>
<path d="M-11 155.928C-2.91568 157.278 5.38139 158 13.8439 158C94.569 158 160 93.5574 160 14.0518C160 5.15831 159.173 -3.54889 157.613 -12L-11 -12L-11 155.928Z" fill="#FFB800" fill-opacity="0.33"/>
<path d="M-6 151.269C0.713299 152.397 7.60326 153 14.6306 153C81.6655 153 136 99.1715 136 32.7609C136 25.3322 135.313 18.0592 134.017 11L-6 11L-6 151.269Z" fill="#E2AB1B"/>
</svg>
